<svg height="99%" viewBox="0 0 501 491" fill="none" xmlns="http://www.w3.org/2000/svg">
<defs>
    <linearGradient id="paint0_linear_27_9" x1="214.733" y1="18" x2="214.64" y2="620.987" gradientUnits="userSpaceOnUse">
        <stop stop-color="#7A16DE"/>
        <stop offset="0.836926"/>
    </linearGradient>
    <linearGradient id="paint0_linear_27_10" x1="264.733" y1="19" x2="264.646" y2="654.543" gradientUnits="userSpaceOnUse">
        <stop stop-color="#4ADE16"/>
        <stop offset="1" stop-color="#32C4D8"/>
    </linearGradient>
    <clipPath id="svgPath">
        <path transform="translate(-10,-54)" d="M363.102 455.721C511.822 439.7 480.542 379.473 468.127 314.149C456.905 255.102 478.702 191.416 472.362 131.647L470.989 118.712C465.68 68.6616 424.656 29.9659 374.38 27.5866L242.374 21.3393C210.714 19.841 179.746 30.9297 156.232 52.1844L132.914 73.2623C115.963 88.5856 101.93 106.856 91.4983 127.187L36.5422 234.289C35.4489 236.419 34.34 238.473 33.3235 240.642C25.448 257.443 -5.98963 338.512 77.7326 416C144.316 477.625 242.007 473.272 293.329 465.49C316.446 461.985 339.856 458.226 363.102 455.721Z" stroke="url(#paint0_linear_27_10)" stroke-width="41"/>
    </clipPath>
</defs>
<path transform="translate(61,7)" d="M299.195 432.961C407.48 414.719 395.499 357.975 391.74 297.573C388.027 237.938 403.471 175.166 394.01 116.169L393.241 111.377C385.634 63.9376 345.951 28.239 297.974 25.6739L208.624 20.8968C174.181 19.0554 140.612 32.1236 116.479 56.7676L105.779 67.6948C90.3758 83.4246 77.8393 101.725 68.7349 121.77L28.8796 209.519C24.1119 220.016 20.1912 231.013 20.934 242.518C22.405 265.299 32.8813 310.313 82.4965 375.384C124.965 431.082 174.905 443.55 209.963 443.988C239.789 444.36 269.781 437.916 299.195 432.961Z" stroke="url(#paint0_linear_27_9)" stroke-width="41"/>
<image transform="translate(10,54)" href="./face.webp" width="501" height="491" style="clip-path: url(#svgPath);" />
<path d="M363.102 455.721C511.822 439.7 480.542 379.473 468.127 314.149C456.905 255.102 478.702 191.416 472.362 131.647L470.989 118.712C465.68 68.6616 424.656 29.9659 374.38 27.5866L242.374 21.3393C210.714 19.841 179.746 30.9297 156.232 52.1844L132.914 73.2623C115.963 88.5856 101.93 106.856 91.4983 127.187L36.5422 234.289C35.4489 236.419 34.34 238.473 33.3235 240.642C25.448 257.443 -5.98963 338.512 77.7326 416C144.316 477.625 242.007 473.272 293.329 465.49C316.446 461.985 339.856 458.226 363.102 455.721Z" stroke="url(#paint0_linear_27_10)" stroke-width="41"/>
</svg>
